<svg xmlns="http://www.w3.org/2000/svg" width="140" height="34" viewBox="0 0 140 34" fill="none" aria-label="iNeuron-logo"><g clip-path="url(#clip0_171_1704)"><path d="M4.58354 4.16092C4.58354 5.23085 3.6951 6.08283 2.2312 6.08283C1.95381 6.11165 1.67334 6.08376 1.40748 6.00092C1.14162 5.91809 0.896139 5.78209 0.686509 5.60152C0.47688 5.42095 0.307651 5.19972 0.189495 4.95177C0.0713386 4.70383 0.00681748 4.43455 0 4.16092C0.012465 3.87955 0.0830172 3.60361 0.207381 3.34979C0.331745 3.09598 0.507331 2.86958 0.7235 2.68433C0.939668 2.49907 1.19192 2.35881 1.46496 2.27205C1.73801 2.18528 2.02616 2.15382 2.31196 2.17956C2.59752 2.14425 2.88747 2.16925 3.16237 2.25289C3.43727 2.33652 3.69078 2.47686 3.9059 2.66449C4.12101 2.85212 4.29276 3.08271 4.40963 3.34079C4.52651 3.59888 4.5858 3.8785 4.58354 4.16092ZM0.464412 26.2728V9.00532H4.15952V26.2728H0.464412Z" fill="#233C7B"></path><path d="M10.4291 26.2728V2.2291H14.417L23.5033 14.3946C25.3667 16.8799 27.0534 19.4882 28.5512 22.2011H28.632C28.3119 18.9086 28.1704 15.6017 28.208 12.2944V2.2291H31.7012V26.2728H27.996L19.0005 14.0776C17.065 11.5159 15.298 8.83559 13.7102 6.0531H13.579C13.791 9.08457 13.8718 11.9972 13.8718 15.9599V26.2728H10.4291Z" fill="#233C7B"></path><path d="M40.0202 18.2087C40.1111 22.4488 43.3014 24.2023 47.0066 24.2023C48.9247 24.2536 50.8356 23.9511 52.6401 23.3107L53.266 25.5595C51.097 26.3193 48.8043 26.682 46.5018 26.6295C40.2322 26.6295 36.4967 23.1324 36.4967 17.9214C36.4402 16.68 36.6488 15.4406 37.109 14.2829C37.5693 13.1252 38.2711 12.0747 39.1695 11.1988C40.0678 10.3229 41.1428 9.64089 42.3256 9.19662C43.5083 8.75235 44.7726 8.55559 46.0374 8.61896C52.6805 8.61896 54.4473 13.5723 54.4473 16.7524C54.4387 17.2403 54.3948 17.7269 54.316 18.2087H40.0202ZM50.8733 15.9599C50.9292 15.2837 50.8352 14.6037 50.5976 13.9666C50.3601 13.3296 49.9847 12.7505 49.4973 12.2694C49.0099 11.7884 48.4221 11.4166 47.7742 11.1798C47.1264 10.9429 46.434 10.8466 45.7446 10.8975C44.3197 10.8945 42.9454 11.4158 41.8931 12.3585C40.8408 13.3013 40.1869 14.5969 40.0606 15.9896L50.8733 15.9599Z" fill="#233C7B"></path><path d="M76.0525 21.5572C76.0525 23.3404 76.0525 24.9156 76.2241 26.2728H72.9429L72.6905 23.4494C71.9258 24.4888 70.9104 25.326 69.7353 25.8861C68.5602 26.4462 67.2619 26.7118 65.9565 26.6592C62.7662 26.6592 58.8894 25.1633 58.8894 19.1003V9.00533H62.5946V18.5653C62.5946 21.8445 63.7758 24.0537 67.1378 24.0537C68.1417 24.0761 69.1318 23.8203 69.9943 23.3156C70.8568 22.8109 71.5569 22.0779 72.0141 21.2005C72.2378 20.6942 72.3513 20.1475 72.3473 19.5957V9.00533H76.0525V21.5572Z" fill="#233C7B"></path><path d="M82.1908 14.3946C82.1908 12.4132 82.1908 10.6102 82.0192 9.00532H85.26L85.3811 12.3934H85.5527C85.9968 11.2819 86.7718 10.3273 87.7766 9.6541C88.7814 8.98087 89.9695 8.62016 91.1863 8.61896C91.5261 8.61448 91.8651 8.65108 92.1958 8.72793V11.7C91.7794 11.6272 91.3568 11.5941 90.9339 11.6009C89.7536 11.5773 88.6039 11.9704 87.6941 12.7086C86.7843 13.4468 86.1749 14.4811 85.9768 15.623C85.8778 16.0993 85.8238 16.5835 85.8152 17.0694V26.2728H82.1908V14.3946Z" fill="#233C7B"></path><path d="M122.675 13.6813C122.675 11.8981 122.675 10.4319 122.504 9.00532H125.785L125.997 11.8882H126.078C126.829 10.8334 127.841 9.98294 129.019 9.41638C130.197 8.84982 131.502 8.58568 132.812 8.64868C135.628 8.64868 140 10.0753 140 15.9896V26.2728H136.295V16.366C136.295 13.5922 135.083 11.274 131.59 11.274C130.528 11.2441 129.482 11.5362 128.595 12.1106C127.708 12.6849 127.023 13.5136 126.633 14.4838C126.453 14.9485 126.368 15.4432 126.381 15.9401V26.2728H122.675V13.6813Z" fill="#233C7B"></path><path d="M118.031 17.0001C118.031 19.1306 117.388 21.2134 116.182 22.9852C114.977 24.7571 113.263 26.1386 111.257 26.9553C109.252 27.772 107.045 27.9871 104.915 27.5737C102.785 27.1602 100.828 26.1366 99.2906 24.6321C97.7532 23.1277 96.7046 21.2099 96.2774 19.121C95.8501 17.0322 96.0634 14.8659 96.8901 12.8959C97.7168 10.9258 99.12 9.2404 100.922 8.05247C102.725 6.86454 104.845 6.2274 107.017 6.22153C109.93 6.22153 112.724 7.35712 114.784 9.37849C116.844 11.3999 118.001 14.1414 118.001 17.0001" fill="#F68C1E"></path><path d="M115.77 17.0001C115.77 18.6941 115.258 20.3501 114.3 21.7589C113.341 23.1677 111.978 24.266 110.384 24.9152C108.789 25.5644 107.034 25.7352 105.341 25.4062C103.647 25.0771 102.091 24.263 100.869 23.0665C99.6468 21.87 98.8135 20.345 98.4742 18.684C98.135 17.023 98.3051 15.3006 98.9629 13.7344C99.6208 12.1682 100.737 10.8285 102.17 9.88454C103.604 8.94055 105.29 8.43464 107.017 8.43073C109.331 8.43335 111.55 9.33735 113.185 10.9441C114.821 12.5509 115.74 14.7291 115.74 17.0001" fill="#233C7B"></path><path d="M107.017 34.0001C102.637 34.0101 98.4174 32.3843 95.2146 29.4529C95.0956 29.3359 95.0288 29.1773 95.0288 29.012C95.0288 28.8467 95.0956 28.6882 95.2146 28.5712L96.9208 26.9465C97.0353 26.8398 97.1871 26.7804 97.3449 26.7804C97.5027 26.7804 97.6544 26.8398 97.7689 26.9465C100.303 29.2405 103.624 30.5143 107.072 30.5143C110.52 30.5143 113.842 29.2405 116.376 26.9465C116.492 26.8392 116.645 26.7794 116.805 26.7794C116.964 26.7794 117.118 26.8392 117.234 26.9465L118.89 28.5712C118.95 28.6284 118.997 28.6969 119.03 28.7727C119.063 28.8484 119.08 28.9298 119.08 29.012C119.08 29.0942 119.063 29.1756 119.03 29.2514C118.997 29.3271 118.95 29.3956 118.89 29.4529C115.67 32.4017 111.421 34.0288 107.017 34.0001" fill="#233C7B"></path><path d="M117.193 7.0537C117.079 7.16032 116.927 7.21976 116.769 7.21976C116.611 7.21976 116.46 7.16032 116.345 7.0537C113.811 4.75963 110.49 3.48587 107.042 3.48587C103.594 3.48587 100.273 4.75963 97.7385 7.0537C97.6241 7.16032 97.4723 7.21976 97.3145 7.21976C97.1567 7.21976 97.0049 7.16032 96.8905 7.0537L95.2246 5.42899C95.1056 5.31198 95.0388 5.15344 95.0388 4.98814C95.0388 4.82284 95.1056 4.6643 95.2246 4.54729C98.4311 1.62484 102.645 0.000610352 107.022 0.000610352C111.398 0.000610352 115.612 1.62484 118.819 4.54729C118.879 4.60455 118.927 4.67307 118.959 4.7488C118.992 4.82452 119.009 4.90591 119.009 4.98814C119.009 5.07037 118.992 5.15176 118.959 5.22749C118.927 5.30321 118.879 5.37174 118.819 5.42899L117.193 7.0537Z" fill="#233C7B"></path><path d="M119.374 23.6079L118.768 23.281C118.631 23.2055 118.528 23.0813 118.481 22.934C118.434 22.7866 118.447 22.6272 118.516 22.4884C119.36 20.7773 119.798 18.901 119.798 17.0001C119.798 15.0992 119.36 13.2229 118.516 11.5117C118.447 11.373 118.434 11.2136 118.481 11.0662C118.528 10.9188 118.631 10.7946 118.768 10.7192L119.374 10.3923C119.448 10.3531 119.529 10.3289 119.613 10.3212C119.696 10.3135 119.781 10.3224 119.861 10.3473C119.941 10.3723 120.015 10.4128 120.079 10.4665C120.143 10.5202 120.195 10.5859 120.232 10.6597C121.215 12.6342 121.726 14.8026 121.726 17.0001C121.726 19.1975 121.215 21.366 120.232 23.3404C120.195 23.4143 120.143 23.48 120.079 23.5337C120.015 23.5873 119.941 23.6279 119.861 23.6528C119.781 23.6778 119.696 23.6867 119.613 23.6789C119.529 23.6712 119.448 23.6471 119.374 23.6079" fill="#233C7B"></path><path d="M94.7098 23.6079C94.6358 23.6471 94.5546 23.6712 94.471 23.6789C94.3873 23.6867 94.3029 23.6778 94.2228 23.6528C94.1428 23.6279 94.0686 23.5873 94.0048 23.5337C93.9411 23.48 93.8889 23.4143 93.8516 23.3404C92.8686 21.366 92.3577 19.1975 92.3577 17.0001C92.3577 14.8026 92.8686 12.6342 93.8516 10.6597C93.8889 10.5859 93.9411 10.5202 94.0048 10.4665C94.0686 10.4128 94.1428 10.3723 94.2228 10.3473C94.3029 10.3224 94.3873 10.3135 94.471 10.3212C94.5546 10.3289 94.6358 10.3531 94.7098 10.3923L95.3155 10.7192C95.4528 10.7947 95.556 10.9182 95.6047 11.0651C95.6533 11.212 95.6438 11.3714 95.578 11.5117C94.7278 13.221 94.2859 15.098 94.2859 17.0001C94.2859 18.9021 94.7278 20.7791 95.578 22.4884C95.6438 22.6287 95.6533 22.7882 95.6047 22.9351C95.556 23.0819 95.4528 23.2054 95.3155 23.281L94.7098 23.6079Z" fill="#233C7B"></path></g><defs><clipPath id="clip0_171_1704"><rect width="140" height="34" fill="white"></rect></clipPath></defs></svg>